<svg height="478" width="720" xmlns="http://www.w3.org/2000/svg">
<rect height="478" fill="#555" width="720"></rect>
<text fill="#7f7" font-family="Courier New" font-size="12" xml:space="preserve">
<tspan x="10" y="26">4 megabytes installed</tspan>
<tspan x="10" y="42"></tspan>
<tspan x="10" y="58">node_modules</tspan>
<tspan x="10" y="74">└─┬ grunt-prettify@0.4.0 </tspan>
<tspan x="10" y="90">  ├── async@0.9.2 </tspan>
<tspan x="10" y="106">  ├─┬ globby@0.1.1 </tspan>
<tspan x="10" y="122">  │ ├── array-differ@0.1.0 </tspan>
<tspan x="10" y="138">  │ ├─┬ array-union@0.1.0 </tspan>
<tspan x="10" y="154">  │ │ └── array-uniq@0.1.1 </tspan>
<tspan x="10" y="170">  │ └─┬ glob@4.5.3 </tspan>
<tspan x="10" y="186">  │   ├─┬ inflight@1.0.6 </tspan>
<tspan x="10" y="202">  │   │ └── wrappy@1.0.2 </tspan>
<tspan x="10" y="218">  │   ├── inherits@2.0.3 </tspan>
<tspan x="10" y="234">  │   ├─┬ minimatch@2.0.10 </tspan>
<tspan x="10" y="250">  │   │ └─┬ brace-expansion@1.1.7 </tspan>
<tspan x="10" y="266">  │   │   ├── balanced-match@0.4.2 </tspan>
<tspan x="10" y="282">  │   │   └── concat-map@0.0.1 </tspan>
<tspan x="10" y="298">  │   └── once@1.4.0 </tspan>
<tspan x="10" y="314">  ├─┬ js-beautify@1.5.10 </tspan>
<tspan x="10" y="330">  │ ├─┬ config-chain@1.1.11 </tspan>
<tspan x="10" y="346">  │ │ ├── ini@1.3.4 </tspan>
<tspan x="10" y="362">  │ │ └── proto-list@1.2.4 </tspan>
<tspan x="10" y="378">  │ ├─┬ mkdirp@0.5.1 </tspan>
<tspan x="10" y="394">  │ │ └── minimist@0.0.8 </tspan>
<tspan x="10" y="410">  │ └─┬ nopt@3.0.6 </tspan>
<tspan x="10" y="426">  │   └── abbrev@1.1.0 </tspan>
<tspan x="10" y="442">  ├── lodash@2.4.2 </tspan>
<tspan x="10" y="458">  └── underscore.string@2.3.3</tspan>
</text>
</svg>
